<?xml version="1.0" encoding="UTF-8"?>
<svg version="1.1" xmlns="http://www.w3.org/2000/svg" width="16" height="16">
<path d="M0 0 C2.66796875 1.10546875 2.66796875 1.10546875 5 3 C5.6859852 7.40676892 5.22189548 11.5177113 5 16 C-0.28 16 -5.56 16 -11 16 C-11.48828125 6.13671875 -11.48828125 6.13671875 -11 3 C-7.37426692 0.05447145 -4.62185486 -0.57773186 0 0 Z " fill="#E2851D" transform="translate(11,0)"/>
<path d="M0 0 C1.58323688 -0.027193 3.16661062 -0.04648306 4.75 -0.0625 C6.07257812 -0.07990234 6.07257812 -0.07990234 7.421875 -0.09765625 C9.7818838 -0.00826198 11.74498524 0.33087179 14 1 C14 3.64 14 6.28 14 9 C10.04 9 6.08 9 2 9 C2 6.69 2 4.38 2 2 C1.34 2 0.68 2 0 2 C0 1.34 0 0.68 0 0 Z " fill="#66290C" transform="translate(0,6)"/>
<path d="M0 0 C0.33 0 0.66 0 1 0 C1 4.29 1 8.58 1 13 C-4.28 13 -9.56 13 -15 13 C-15 10.36 -15 7.72 -15 5 C-14.34 5 -13.68 5 -13 5 C-13 7.31 -13 9.62 -13 12 C-9.04 12 -5.08 12 -1 12 C-1.20625 10.576875 -1.4125 9.15375 -1.625 7.6875 C-2.17283528 3.90743657 -2.23551759 3.35327639 0 0 Z " fill="#BA7017" transform="translate(15,3)"/>
<path d="M0 0 C3.96 0 7.92 0 12 0 C12 0.99 12 1.98 12 3 C8.04 3 4.08 3 0 3 C0 2.01 0 1.02 0 0 Z " fill="#786052" transform="translate(2,12)"/>
<path d="M0 0 C2.64 0 5.28 0 8 0 C8 0.99 8 1.98 8 3 C5.36 3 2.72 3 0 3 C0 2.01 0 1.02 0 0 Z " fill="#855220" transform="translate(4,8)"/>
<path d="M0 0 C0.33 0 0.66 0 1 0 C1 3.3 1 6.6 1 10 C0.01 9.67 -0.98 9.34 -2 9 C-2.25 3.375 -2.25 3.375 0 0 Z " fill="#D0510F" transform="translate(15,3)"/>
</svg>
